<svg width="635" height="387" viewBox="0 0 635 387" fill="none" xmlns="http://www.w3.org/2000/svg">
<g clip-path="url(#clip0_1_3)">
<path d="M164.142 167.903V332.668C164.142 342.602 158.956 347.904 148.981 347.812C145.534 347.782 141.935 347.538 138.701 346.441C134.156 344.918 131.624 341.139 130.862 336.416C127.171 313.866 109.357 297.868 85.777 296.04C65.3699 294.486 44.7187 308.716 38.0689 329.011C37.2758 331.418 36.9402 333.947 36.4217 336.416C35.171 342.602 30.9615 346.776 24.6777 347.569C21.5968 347.965 18.3939 348.026 15.313 347.691C7.47345 346.898 3.08089 341.627 3.05038 333.369V168.634C3.05038 158.487 8.29706 153.246 18.4244 153.246H149.5C158.62 153.246 164.142 158.792 164.142 167.903Z" stroke="black" stroke-width="7" stroke-miterlimit="10"/>
<path d="M126.53 344.125C126.53 368.016 107.465 387 83.4892 387C59.7877 387 40.6007 367.833 40.6312 344.247C40.6617 319.991 59.5741 300.824 83.5197 300.793C107.526 300.793 126.53 319.9 126.53 344.095V344.125ZM83.3672 322.612C71.7147 322.673 61.9229 332.576 62.045 344.156C62.167 355.583 72.0197 365.334 83.4282 365.334C95.2942 365.334 105.299 355.37 105.086 343.729C104.872 331.936 95.2332 322.581 83.3672 322.612Z" fill="black"/>
<path d="M144.436 23.4333C104.598 23.4333 64.7598 23.4333 24.9522 23.4028C22.4509 23.4028 19.919 22.9457 17.4787 22.3668C12.9947 21.2698 10.6459 18.253 10.3713 13.6821C10.1578 10.0254 12.5981 5.88118 16.1671 4.47945C18.1498 3.71764 20.3461 3.13866 22.4509 3.13866C63.3871 3.07771 104.293 3.04724 145.229 3.13866C154.106 3.13866 159.261 10.3911 155.692 17.5826C153.435 22.123 149.286 23.4942 144.467 23.4638L144.436 23.4333Z" stroke="black" stroke-width="7" stroke-miterlimit="10"/>
<path d="M312.97 312.708C301.074 312.708 290.58 310.758 281.734 306.857C272.888 302.987 265.476 297.807 259.649 291.438C253.854 285.1 249.461 277.909 246.594 270.077C243.726 262.276 242.293 254.232 242.293 246.217C242.293 238.203 243.696 229.671 246.472 221.535C249.217 213.49 253.06 205.689 257.911 198.376C262.73 191.093 268.556 184.267 275.176 178.111C281.826 171.956 289.055 166.532 296.742 162.022C304.429 157.482 312.604 153.855 320.962 151.235C329.381 148.614 338.044 147.273 346.708 147.273C352.137 147.273 357.78 147.913 363.454 149.224C369.189 150.534 374.497 152.484 379.225 155.105C384.075 157.756 388.132 161.169 391.274 165.252C394.599 169.518 396.276 174.638 396.276 180.458C396.276 185.669 394.904 191.276 392.189 197.035C389.535 202.672 386.149 207.944 382.153 212.698C378.157 217.451 373.642 221.474 368.762 224.643C363.698 227.934 358.726 229.61 353.998 229.61C352.9 229.61 351.802 229.214 350.673 228.421C349.544 227.629 348.507 225.953 347.165 222.601C347.165 222.54 347.135 222.51 347.104 222.449C346.738 221.382 346.372 220.316 345.975 219.31C345.457 218.03 345.182 216.75 345.182 215.471C345.182 214.191 345.853 212.911 347.135 211.723C347.928 210.991 348.934 210.199 350.154 209.346C351.283 208.523 352.503 207.609 353.754 206.603C354.974 205.628 356.164 204.348 357.353 202.825C359.55 200.143 361.136 197.279 362.142 194.262C363.149 191.276 363.454 188.381 363.119 185.455C362.783 182.652 361.715 180.031 359.977 177.685C358.268 175.338 355.584 173.48 351.985 172.078C347.257 170.28 342.681 169.366 338.349 169.366C336.519 169.366 334.689 169.518 332.95 169.853C326.91 170.981 321.298 173.297 316.234 176.801C311.109 180.366 306.442 184.907 302.355 190.3C298.206 195.785 294.607 201.606 291.678 207.578C288.75 213.551 286.493 219.554 284.968 225.405C283.442 231.164 282.68 236.253 282.68 240.489C282.68 245.76 283.442 251.337 284.968 257.035C286.462 262.672 288.933 267.853 292.319 272.485C295.674 277.055 300.189 280.864 305.71 283.82C311.201 286.746 318.217 288.239 326.544 288.239C331.425 288.239 335.94 287.69 339.966 286.654C344.054 285.588 347.745 284.247 350.887 282.693C354.089 281.108 356.926 279.432 359.245 277.726C361.654 275.958 363.546 274.374 364.857 273.064C366.84 270.991 368.579 269.194 370.104 267.7C371.355 263.83 373.093 259.96 375.29 256.182C380.292 247.589 387.034 239.879 395.331 233.175C403.597 226.532 413.267 221.108 424.065 217.116C434.894 213.094 446.333 211.052 458.016 211.052C466.923 211.052 469.882 215.105 470.797 218.609C471.072 219.31 471.347 220.133 471.621 221.199C471.957 222.449 472.109 223.698 472.109 224.948C472.109 228.787 469.73 231.164 465.886 231.164C464.056 231.164 462.104 230.859 460.091 230.25C458.565 229.793 457.01 229.579 455.423 229.579C448.316 229.579 441.3 231.042 434.589 233.876C427.787 236.771 421.717 240.58 416.47 245.242C411.284 249.874 407.044 255.115 403.933 260.783C400.882 266.329 399.327 271.906 399.327 277.33C399.327 278.305 399.571 279.189 400.059 280.042C400.15 280.225 400.638 280.804 402.621 281.169C405.123 281.139 407.197 280.529 408.935 279.28C410.918 277.878 412.779 276.019 414.426 273.764C416.5 270.839 418.239 267.792 419.551 264.836C420.863 261.819 422.174 258.772 423.364 255.847C424.553 252.891 425.865 250.087 427.207 247.528C428.672 244.724 430.715 242.286 433.217 240.275C435.687 238.294 438.86 236.71 442.551 235.582C446.211 234.455 450.909 233.876 456.552 233.876C458.504 233.876 460.121 234.272 461.372 235.095C463.354 236.436 463.751 238.02 463.751 239.087C463.751 240.458 463.11 241.799 461.829 243.109C460.304 244.755 458.718 247.131 457.132 250.179C455.484 253.378 453.929 256.822 452.526 260.448C451.122 264.105 449.963 267.731 449.079 271.266C448.225 274.74 447.767 277.695 447.767 280.072C447.767 280.682 447.859 281.017 447.889 281.139C447.92 281.139 447.981 281.139 448.042 281.139C448.347 281.139 449.292 281.017 451.092 279.92C452.739 278.945 454.508 277.695 456.369 276.141C458.413 274.435 460.487 272.667 462.531 270.87C464.697 268.98 466.679 267.213 468.54 265.567C470.431 263.891 472.048 262.551 473.512 261.484C475.556 258.802 477.325 256.09 478.82 253.378C480.864 249.722 482.511 245.974 483.762 242.286C484.89 238.965 485.958 235.4 486.934 231.712C484.494 228.757 483.182 226.258 482.877 224.125C482.602 222.266 482.389 220.651 482.267 219.28C482.114 218 482.267 216.111 482.694 213.551C483.152 210.93 483.823 208.828 484.768 207.121L484.829 207.03C486.08 204.927 487.605 202.855 489.344 200.844C490.991 198.924 492.76 197.096 494.56 195.42C496.36 193.744 498.037 192.403 499.532 191.397C501.454 190.118 502.827 189.569 504.047 189.569C505.175 189.569 506.487 189.843 508.043 190.422C509.507 190.94 510.91 191.702 512.222 192.616C513.442 193.47 514.571 194.445 515.577 195.511C516.919 196.943 517.59 198.406 517.59 199.899C517.59 200.326 517.499 200.752 517.285 201.118C515.577 204.409 514.357 206.969 513.533 208.98C512.74 210.93 512.13 212.82 511.673 214.617C511.581 214.983 511.551 215.257 511.52 215.44C516.218 217.878 520.976 220.163 525.613 222.175C530.677 224.369 535.649 226.593 540.438 228.787C540.56 228.848 540.682 228.909 540.804 228.97C542.573 230.128 543.641 231.499 544.007 233.053C544.312 234.364 544.22 235.796 543.763 237.319C543.397 238.538 542.817 239.818 542.085 241.159C541.475 242.256 540.895 243.383 540.407 244.48C539.035 247.467 537.601 250.636 536.076 254.11C534.673 257.279 533.391 260.509 532.202 263.709C531.073 266.817 530.097 269.864 529.334 272.728C528.602 275.41 528.236 277.878 528.236 280.011C528.236 280.621 528.328 280.925 528.358 281.078C528.389 281.078 528.45 281.078 528.511 281.078C528.633 281.078 529.426 281.017 531.256 279.889C532.842 278.914 534.642 277.634 536.594 276.05C538.669 274.374 540.773 272.606 542.817 270.809C543.366 270.321 543.915 269.833 544.464 269.346C545.105 266.39 545.929 263.343 546.844 260.235C549.345 251.763 552.182 243.201 555.293 234.76C558.374 226.319 561.577 218.183 564.811 210.626C567.556 204.135 569.996 198.284 572.101 193.226C566.885 189.965 561.272 186.491 554.988 182.621C548.064 178.355 542.207 174.79 537.082 171.712C531.531 168.391 526.528 165.465 522.166 162.997C517.895 160.559 514.571 158.822 512.313 157.817C510.788 157.238 508.775 155.836 507.646 152.454C506.914 150.26 506.487 147.852 506.335 145.262C506.213 142.763 506.243 140.265 506.426 137.796C506.609 135.48 506.853 133.591 507.128 132.159C507.341 129.782 507.951 128.198 509.049 127.192C509.964 126.4 511.093 125.973 512.344 125.973C512.832 125.973 513.35 126.034 513.869 126.156C516.614 126.643 522.166 128.685 538.211 139.99C549.162 147.7 563.285 157.756 581.344 170.737C581.862 169.488 582.35 168.299 582.808 167.172C582.808 167.172 584.638 162.601 584.974 161.748C585.645 160.072 586.377 158.457 587.139 156.933C587.902 155.409 588.817 153.886 590.007 152.271C591.166 150.595 593.423 149.193 597.145 147.944C600.5 146.816 605.991 146.115 613.952 145.841C614.288 145.841 614.593 145.811 614.898 145.811C616.972 145.811 618.619 146.329 619.84 147.365C621.182 148.492 622.005 149.955 622.31 151.692C622.585 153.185 622.493 154.739 622.066 156.324C621.731 157.573 621.334 158.731 620.877 159.797C620.846 159.889 620.785 159.98 620.755 160.072C618.192 164.643 615.813 169.518 613.678 174.577C611.756 179.117 609.621 183.993 607.363 189.142C612.915 193.012 617.338 195.968 620.541 197.949C624.11 200.173 626.611 201.789 628.137 202.855C630.363 204.409 631.309 205.415 631.645 206.542C631.889 207.426 631.919 208.492 631.736 210.047C631.736 210.138 631.736 210.26 631.675 210.351C631.218 212.362 630.394 214.221 629.296 215.806L629.235 215.867C628.198 217.268 626.703 218.426 624.812 219.341C623.653 219.889 622.341 220.163 620.877 220.163C619.718 220.163 618.406 219.981 617.033 219.615C615.02 219.188 613.464 218.701 612.305 218.152C611.115 217.573 610.109 217.025 609.255 216.446C608.462 215.928 607.608 215.318 606.662 214.587C605.899 214.008 604.771 213.277 603.306 212.423C602.178 211.814 600.958 211.052 599.616 210.168C599.249 209.925 598.853 209.681 598.456 209.407L598.243 209.925C597.114 212.85 595.833 215.928 594.46 218.944C593.179 221.809 591.928 224.795 590.769 227.781C588.39 233.48 586.133 238.934 583.967 244.176C581.801 249.417 579.879 254.384 578.202 258.955C576.524 263.526 575.212 267.7 574.236 271.418C573.321 274.983 572.833 278.092 572.833 280.59C572.833 280.834 572.833 281.047 572.864 281.2C573.26 281.2 573.962 281.078 575.029 280.621C576.555 279.981 578.232 279.036 579.971 277.817C581.801 276.537 583.448 275.319 584.821 274.221C585.309 273.825 586.285 272.942 588.024 271.083C589.549 269.498 591.196 267.853 592.935 266.177C594.674 264.501 596.443 262.977 598.182 261.636C600.348 259.991 602.086 259.229 603.642 259.229C603.795 259.229 603.947 259.229 604.069 259.26C606.845 259.717 608.614 261.484 608.858 264.105C609.011 265.842 608.797 267.731 608.157 269.681C607.577 271.449 606.814 273.216 605.899 274.953C604.923 276.751 604.283 277.817 603.795 278.457C601.049 282.144 597.907 285.801 594.521 289.336C591.135 292.84 587.475 296.04 583.601 298.813C579.696 301.616 575.517 303.871 571.155 305.547C567.068 307.101 562.736 307.894 558.313 307.894C557.947 307.894 557.612 307.894 557.246 307.894C556.33 307.894 555.11 307.772 553.585 307.558C551.816 307.315 550.23 306.797 548.857 305.943C546.356 304.572 544.525 302.439 543.458 299.544C543 298.356 542.665 297.106 542.421 295.766C540.346 297.289 538.211 298.66 536.045 299.94C531.5 302.591 526.986 304.603 522.654 305.913C518.292 307.223 514.418 307.894 511.124 307.894C505.175 307.894 501.027 306.065 498.8 302.5C496.848 299.331 495.841 295.217 495.841 290.25C495.841 286.685 496.207 282.754 496.97 278.549C497.702 274.404 498.77 270.108 500.112 265.811C501.423 261.606 502.918 257.279 504.596 252.952C505.938 249.508 507.372 246.156 508.927 242.987C508.836 242.957 507.738 242.469 507.738 242.469C506.853 242.073 505.968 241.677 505.084 241.281C504.138 240.885 503.376 240.549 502.705 240.306C500.722 245.395 498.403 250.301 495.811 254.932C492.791 260.265 489.618 265.232 486.354 269.681C483.091 274.161 479.766 278.122 476.441 281.504C475.953 282.022 475.434 282.51 474.946 282.998C467.778 290.738 460.731 296.802 454.051 301.007C446.76 305.578 439.409 307.924 432.24 307.924C425.072 307.924 420.283 305.486 417.69 300.641C417.172 299.727 416.745 298.752 416.378 297.655C413.206 300.336 409.668 302.622 405.794 304.511C400.333 307.162 394.294 308.533 387.857 308.533C383.282 308.533 379.255 306.736 375.869 303.17C373.002 300.184 370.806 296.741 369.372 292.871C369.097 293.084 368.823 293.328 368.548 293.541C363.881 297.32 358.574 300.672 352.747 303.506C346.921 306.339 340.607 308.594 333.987 310.209C327.307 311.825 320.139 312.647 312.757 312.647L312.97 312.708Z" stroke="black" stroke-width="7" stroke-miterlimit="10"/>
</g>
<defs>
<clipPath id="clip0_1_3">
<rect width="635" height="387" fill="var(--neutral-black)"/>
</clipPath>
</defs>
</svg>
